grf
version=1
nRows=19
nColumns=37
inDegrees=no
endheader
time	ground_force_1_vx	ground_force_1_vy	ground_force_1_vz	ground_force_1_px	ground_force_1_py	ground_force_1_pz	ground_moment_1_mx	ground_moment_1_my	ground_moment_1_mz	ground_force_2_vx	ground_force_2_vy	ground_force_2_vz	ground_force_2_px	ground_force_2_py	ground_force_2_pz	ground_moment_2_mx	ground_moment_2_my	ground_moment_2_mz	ground_force_3_vx	ground_force_3_vy	ground_force_3_vz	ground_force_3_px	ground_force_3_py	ground_force_3_pz	ground_moment_3_mx	ground_moment_3_my	ground_moment_3_mz	ground_force_4_vx	ground_force_4_vy	ground_force_4_vz	ground_force_4_px	ground_force_4_py	ground_force_4_pz	ground_moment_4_mx	ground_moment_4_my	ground_moment_4_mz
      2.32000000	      0.00000000	     -0.00000000	      0.00000000	      0.00000000	      0.00000000	      0.00000000	      0.00000000	      0.00000000	      0.00000000	      3.20790792	     38.85810471	   -373.31484985	   -349.77921537	  -1107.30956591	      0.00000000	      0.00000000	      0.00000000	   1227.17278702	     -5.85876923	    -36.03812739	   -319.83425903	   -310.40265592	   -686.26836815	      0.00000000	      0.00000000	     -0.00000000	  -2294.42358722	      0.00000000	     -0.00000000	      0.00000000	      0.00000000	      0.00000000	      0.00000000	      0.00000000	      0.00000000	      0.00000000
      2.33000000	      0.00000000	     -0.00000000	      0.00000000	      0.00000000	      0.00000000	      0.00000000	      0.00000000	      0.00000000	      0.00000000	      2.94226241	     38.50180817	   -372.60485840	   -351.17935355	  -1106.17032452	      0.00000000	      0.00000000	      0.00000000	   1143.18161417	     -5.76531538	    -36.38764903	   -318.77896118	   -312.06377526	   -686.90962563	      0.00000000	      0.00000000	     -0.00000000	  -2170.92230653	      0.00000000	     -0.00000000	      0.00000000	      0.00000000	      0.00000000	      0.00000000	      0.00000000	      0.00000000	      0.00000000
      2.34000000	      0.00000000	     -0.00000000	      0.00000000	      0.00000000	      0.00000000	      0.00000000	      0.00000000	      0.00000000	      0.00000000	      3.03237510	     38.68259430	   -372.95181274	   -351.59015178	  -1106.89605761	      0.00000000	      0.00000000	      0.00000000	   1245.96536829	     -5.67914374	    -36.29857204	   -320.53091431	   -313.78944136	   -689.09798733	      0.00000000	      0.00000000	     -0.00000000	  -2298.65640331	      0.00000000	     -0.00000000	      0.00000000	      0.00000000	      0.00000000	      0.00000000	      0.00000000	      0.00000000	      0.00000000
      2.35000000	      0.00000000	     -0.00000000	      0.00000000	      0.00000000	      0.00000000	      0.00000000	      0.00000000	      0.00000000	      0.00000000	      3.56983447	     38.41591263	   -373.29443359	   -353.66521431	  -1106.81913050	      0.00000000	      0.00000000	      0.00000000	   1062.43630136	     -6.37967569	    -36.12506811	   -324.34414673	   -315.89631096	   -688.49727409	      0.00000000	      0.00000000	     -0.00000000	  -2091.91414737	      0.00000000	     -0.00000000	      0.00000000	      0.00000000	      0.00000000	      0.00000000	      0.00000000	      0.00000000	      0.00000000
      2.36000000	      0.00000000	     -0.00000000	      0.00000000	      0.00000000	      0.00000000	      0.00000000	      0.00000000	      0.00000000	      0.00000000	      5.00093412	     38.23501968	   -371.87811279	   -356.01702060	  -1105.55304192	      0.00000000	      0.00000000	      0.00000000	   1177.14607089	     -4.79176697	    -36.47410923	   -324.00726318	   -317.26240021	   -690.64118481	      0.00000000	      0.00000000	     -0.00000000	  -2217.83619140	      0.00000000	     -0.00000000	      0.00000000	      0.00000000	      0.00000000	      0.00000000	      0.00000000	      0.00000000	      0.00000000
      2.37000000	      0.00000000	     -0.00000000	      0.00000000	      0.00000000	      0.00000000	      0.00000000	      0.00000000	      0.00000000	      0.00000000	      7.31468248	     37.52390289	   -368.36212158	   -359.22722541	  -1103.68712505	      0.00000000	      0.00000000	      0.00000000	   1310.81679943	     -3.28543854	    -35.50781603	   -326.10513306	   -320.10888284	   -691.56684131	      0.00000000	      0.00000000	     -0.00000000	  -2009.25670845	      0.00000000	     -0.00000000	      0.00000000	      0.00000000	      0.00000000	      0.00000000	      0.00000000	      0.00000000	      0.00000000
      2.38000000	      0.00000000	     -0.00000000	      0.00000000	      0.00000000	      0.00000000	      0.00000000	      0.00000000	      0.00000000	      0.00000000	      8.83385658	     36.45433807	   -368.01547241	   -361.12284409	  -1102.16864391	      0.00000000	      0.00000000	      0.00000000	   1120.67732967	     -2.03924655	    -35.32647306	   -325.76718140	   -322.23816985	   -693.20289866	      0.00000000	      0.00000000	     -0.00000000	  -2020.76775086	      0.00000000	     -0.00000000	      0.00000000	      0.00000000	      0.00000000	      0.00000000	      0.00000000	      0.00000000	      0.00000000
      2.39000000	      0.00000000	     -0.00000000	      0.00000000	      0.00000000	      0.00000000	      0.00000000	      0.00000000	      0.00000000	      0.00000000	      9.99113750	     36.27431870	   -367.31582642	   -362.81946045	  -1100.98433410	      0.00000000	      0.00000000	      0.00000000	   1119.90449379	     -0.35533492	    -34.26930234	   -325.06787109	   -324.85806488	   -694.96170204	      0.00000000	     -0.00000000	     -0.00000000	  -1989.02724178	      0.00000000	     -0.00000000	      0.00000000	      0.00000000	      0.00000000	      0.00000000	      0.00000000	      0.00000000	      0.00000000
      2.40000000	      0.00000000	     -0.00000000	      0.00000000	      0.00000000	      0.00000000	      0.00000000	      0.00000000	      0.00000000	      0.00000000	      8.83296967	     36.36407471	   -372.95056152	   -361.25423350	  -1104.38059990	      0.00000000	      0.00000000	      0.00000000	   1157.84667791	      0.70883221	    -34.00342947	   -325.40258789	   -327.33491969	   -693.45524873	      0.00000000	      0.00000000	     -0.00000000	  -1821.97730434	      0.00000000	     -0.00000000	      0.00000000	      0.00000000	      0.00000000	      0.00000000	      0.00000000	      0.00000000	      0.00000000
      2.41000000	      0.00000000	     -0.00000000	      0.00000000	      0.00000000	      0.00000000	      0.00000000	      0.00000000	      0.00000000	      0.00000000	      7.22514772	     36.63169479	   -370.13018799	   -361.50236741	  -1103.00911182	      0.00000000	      0.00000000	      0.00000000	   1090.49996644	      1.50702866	    -33.12168135	   -323.30749512	   -330.97646686	   -694.67341562	      0.00000000	      0.00000000	     -0.00000000	  -1846.78977598	      0.00000000	     -0.00000000	      0.00000000	      0.00000000	      0.00000000	      0.00000000	      0.00000000	      0.00000000	      0.00000000
      2.42000000	      0.00000000	     -0.00000000	      0.00000000	      0.00000000	      0.00000000	      0.00000000	      0.00000000	      0.00000000	      0.00000000	      4.99627066	     36.27679825	   -370.48959351	   -360.68234609	  -1103.66311445	      0.00000000	      0.00000000	      0.00000000	    834.54805446	      2.21689412	    -33.03115101	   -322.26580811	   -334.02416589	   -696.87905675	      0.00000000	      0.00000000	     -0.00000000	  -1796.63150527	      0.00000000	     -0.00000000	      0.00000000	      0.00000000	      0.00000000	      0.00000000	      0.00000000	      0.00000000	      0.00000000
      2.43000000	      0.00000000	     -0.00000000	      0.00000000	      0.00000000	      0.00000000	      0.00000000	      0.00000000	      0.00000000	      0.00000000	      4.19223118	     35.65282440	   -369.07568359	   -359.29265863	  -1101.90910967	      0.00000000	      0.00000000	      0.00000000	   1138.76716730	      3.10595437	    -33.12020520	   -325.40759277	   -336.22392812	   -698.57282110	      0.00000000	     -0.00000000	     -0.00000000	  -1681.72399833	      0.00000000	     -0.00000000	      0.00000000	      0.00000000	      0.00000000	      0.00000000	      0.00000000	      0.00000000	      0.00000000
      2.44000000	      0.00000000	     -0.00000000	      0.00000000	      0.00000000	      0.00000000	      0.00000000	      0.00000000	      0.00000000	      0.00000000	      3.30109477	     35.56364441	   -371.19213867	   -359.24683916	  -1103.33964153	      0.00000000	      0.00000000	      0.00000000	   1022.54123192	      3.01631633	    -33.65147808	   -329.95010376	   -338.02817336	   -698.45200409	      0.00000000	      0.00000000	     -0.00000000	  -1590.50470493	      0.00000000	     -0.00000000	      0.00000000	      0.00000000	      0.00000000	      0.00000000	      0.00000000	      0.00000000	      0.00000000
      2.45000000	      0.00000000	     -0.00000000	      0.00000000	      0.00000000	      0.00000000	      0.00000000	      0.00000000	      0.00000000	      0.00000000	      2.76541090	     35.91963196	   -370.13378906	   -359.02616505	  -1102.57755985	      0.00000000	      0.00000000	      0.00000000	    993.50062637	      3.19322826	    -35.24044446	   -334.48724365	   -338.00197018	   -698.51080506	      0.00000000	      0.00000000	     -0.00000000	  -1694.71623700	      0.00000000	     -0.00000000	      0.00000000	      0.00000000	      0.00000000	      0.00000000	      0.00000000	      0.00000000	      0.00000000
      2.46000000	      0.00000000	     -0.00000000	      0.00000000	      0.00000000	      0.00000000	      0.00000000	      0.00000000	      0.00000000	      0.00000000	      1.96266830	     36.00886917	   -370.13256836	   -359.15328321	  -1102.38069592	      0.00000000	      0.00000000	      0.00000000	    950.80755800	      2.12897010	    -35.94695682	   -339.72454834	   -337.58465006	   -698.10909101	      0.00000000	      0.00000000	     -0.00000000	  -1797.88060772	      0.00000000	     -0.00000000	      0.00000000	      0.00000000	      0.00000000	      0.00000000	      0.00000000	      0.00000000	      0.00000000
      2.47000000	      0.00000000	     -0.00000000	      0.00000000	      0.00000000	      0.00000000	      0.00000000	      0.00000000	      0.00000000	      0.00000000	      1.24965167	     36.00888443	   -368.72183228	   -358.05897415	  -1103.25817319	      0.00000000	      0.00000000	      0.00000000	    967.10231448	      1.15343277	    -36.30031596	   -342.16857910	   -337.98178812	   -700.06418901	      0.00000000	      0.00000000	      0.00000000	  -1794.20650892	      0.00000000	     -0.00000000	      0.00000000	      0.00000000	      0.00000000	      0.00000000	      0.00000000	      0.00000000	      0.00000000
      2.48000000	      0.00000000	     -0.00000000	      0.00000000	      0.00000000	      0.00000000	      0.00000000	      0.00000000	      0.00000000	      0.00000000	      1.69434166	     35.47455597	   -366.95852661	   -358.43052163	  -1103.62376064	      0.00000000	      0.00000000	      0.00000000	   1029.12832804	      0.70968308	    -36.56562430	   -344.26214600	   -336.97691939	   -700.12443247	      0.00000000	      0.00000000	     -0.00000000	  -1686.65874167	      0.00000000	     -0.00000000	      0.00000000	      0.00000000	      0.00000000	      0.00000000	      0.00000000	      0.00000000	      0.00000000
      2.49000000	      0.00000000	     -0.00000000	      0.00000000	      0.00000000	      0.00000000	      0.00000000	      0.00000000	      0.00000000	      0.00000000	      1.87318075	     34.22823334	   -362.36166382	   -358.98929473	  -1103.11029330	      0.00000000	      0.00000000	      0.00000000	    844.64664839	      0.62078487	    -36.21282583	   -346.70758057	   -337.06122588	   -699.64037323	      0.00000000	      0.00000000	     -0.00000000	  -1713.40683273	      0.00000000	     -0.00000000	      0.00000000	      0.00000000	      0.00000000	      0.00000000	      0.00000000	      0.00000000	      0.00000000
      2.50000000	      0.00000000	     -0.00000000	      0.00000000	      0.00000000	      0.00000000	      0.00000000	      0.00000000	      0.00000000	      0.00000000	      2.67661524	     34.04841232	   -357.06256104	   -358.59535363	  -1102.86003279	      0.00000000	      0.00000000	      0.00000000	   1019.38129732	      0.53300307	    -36.38976674	   -345.66787720	   -337.69227760	   -702.51543803	      0.00000000	      0.00000000	     -0.00000000	  -1781.96229213	      0.00000000	     -0.00000000	      0.00000000	      0.00000000	      0.00000000	      0.00000000	      0.00000000	      0.00000000	      0.00000000
